HIERARCHY
ROOT pelvis
{
  OFFSET 0 100 0
  CHANNELS 6 Xposition Yposition Zposition Zrotation Xrotation Yrotation
  JOINT pelvis_right_femur
  {
    OFFSET -10.78128 -3.44521 -0.5502486
    CHANNELS 3 Zrotation Xrotation Yrotation
    JOINT right_femur_tibia
    {
      OFFSET -0.8047443 -44.0398 -0.1307829
      CHANNELS 3 Zrotation Xrotation Yrotation
      JOINT right_tibia_foot
      {
        OFFSET 3.006224 -47.83518 -5
        CHANNELS 3 Zrotation Xrotation Yrotation
        End Site
        {
          OFFSET 0 -5 15
        }
      }
    }
  }
  JOINT pelvis_left_femur
  {
    OFFSET 10.78128 -3.44521 -0.5502486
    CHANNELS 3 Zrotation Xrotation Yrotation
    JOINT left_femur_tibia
    {
      OFFSET 0.8047443 -44.0398 -0.1307829
      CHANNELS 3 Zrotation Xrotation Yrotation
      JOINT left_tibia_foot
      {
        OFFSET -4.370144 -48.10324 -4.275266
        CHANNELS 3 Zrotation Xrotation Yrotation
        End Site
        {
          OFFSET 0 -5 15
        }
      }
    }
  }
  JOINT pelvis_spine1
  {
    OFFSET 0 6.468898 -3.129235
    CHANNELS 3 Zrotation Xrotation Yrotation
    JOINT spine1
    {
      OFFSET 0 23.15396 4.99043
      CHANNELS 3 Zrotation Xrotation Yrotation
      JOINT spine2
      {
        OFFSET 0 20.79997 -5.064912
        CHANNELS 3 Zrotation Xrotation Yrotation
        JOINT neck
        {
          OFFSET 0 14.38658 9.616178
          CHANNELS 3 Zrotation Xrotation Yrotation
          End Site
          {
            OFFSET 0 20 0
          }
        }
      }
      JOINT right_manubrium
      {
        OFFSET -5.722621 16.35077 3.967754
        CHANNELS 3 Zrotation Xrotation Yrotation
        JOINT right_clavicle
        {
          OFFSET -13.16364 1.694482 -4.693211
          CHANNELS 3 Zrotation Xrotation Yrotation
          JOINT right_humerus
          {
            OFFSET -28.5034 -0.3100689 -2.792744
            CHANNELS 3 Zrotation Xrotation Yrotation
            JOINT right_radius
            {
              OFFSET -25.15693 0.02248979 -1.271978
              CHANNELS 3 Zrotation Xrotation Yrotation
              End Site
              {
                OFFSET -15 0 0
              }
            }
          }
        }
      }
      JOINT left_manubrium
      {
        OFFSET 5.722621 16.35077 3.967754
        CHANNELS 3 Zrotation Xrotation Yrotation
        JOINT left_clavicle
        {
          OFFSET 13.16364 1.694482 -4.693211
          CHANNELS 3 Zrotation Xrotation Yrotation
          JOINT left_humerus
          {
            OFFSET 29.39168 -1.063119 -2.237045
            CHANNELS 3 Zrotation Xrotation Yrotation
            JOINT left_radius
            {
              OFFSET 24.59957 -0.9528479 0.9047498
              CHANNELS 3 Zrotation Xrotation Yrotation
              End Site
              {
                OFFSET 15 -0 -0
              }
            }
          }
        }
      }
    }
  }
}
MOTION
Frames: 7
Frame Time: 0.0416666666667
0 103.5113 0 1.279878 -0.9301573 0.01536049 3.709776 -16.11461 10.19482 -0 38.28457 -0 -4.440883 -16.93165 -3.900223 -7.73351 10.62413 -23.5112 -0 5.031685 -0 11.76619 -15.38617 28.30402 -4.260029 -3.64849 4.626078 3.006173 9.591147 -7.525592 1.400801 22.48721 6.507835 2.132242 -25.12391 9.902884 5.739758 -20.31671 11.74037 86.23151 35.24224 -18.78542 -0 0 15.48764 -6.235393 7.671658 5.448546 4.599569 -18.17562 -1.86124 -93.75456 27.38977 22.40216 0 0 -16.6877 7.14429 15.24121 6.197866
0.3346078 103.2181 1.514264 1.068272 -0.6790136 0.06559094 4.008625 -17.11091 9.977472 -0 38.61854 -0 -4.436889 -16.3861 -3.727967 -7.58632 10.44549 -23.27521 -0 5.079863 -0 10.80061 -16.33667 27.72642 -4.047391 -3.499321 4.638024 2.905218 9.416823 -7.530156 1.366838 22.23193 6.683874 2.377455 -25.15971 9.887238 5.857579 -20.13407 11.69149 85.84608 34.97267 -18.59293 -0 0 16.12847 -6.326067 7.774849 5.124954 5.147391 -18.36161 -1.446506 -94.02031 26.87141 22.47472 0 0 -15.99054 7.494771 15.5355 5.618069
0.552198 102.7302 4.268199 -0.264874 1.572178 0.2636971 5.749642 -25.9734 7.31668 -0 26.40166 -0 -5.410707 -10.01824 -2.748624 -6.282277 13.31342 -20.50058 -0 7.729361 -0 5.291895 -20.74363 22.96352 -2.816851 -2.506785 4.111462 2.870349 8.988196 -8.198576 1.441102 21.05639 7.463177 3.584006 -25.69823 9.811152 5.473954 -18.7888 11.1209 87.04025 35.1804 -21.2742 -0 0 14.22422 -8.161303 9.353935 4.672599 6.896601 -21.00534 -1.268123 -92.50356 27.90644 20.10501 0 0 -21.20564 6.299025 16.02212 7.273912
0.6755463 102.0686 7.684353 -1.060742 2.384674 0.6062839 6.535575 -29.85197 6.113129 -0 21.24713 -0 -6.079221 -6.982725 -2.535431 -5.455593 14.85831 -19.13259 -0 10.07244 -0 0.3992301 -23.18001 19.54917 -1.976888 -1.819455 3.6966 2.658306 8.420717 -8.422473 1.528703 20.6073 7.902949 4.252247 -25.71722 9.76945 5.224391 -17.78738 10.62411 87.63715 34.84276 -22.56628 -0 0 13.27876 -8.930258 10.13568 4.193945 7.811071 -22.11781 -1.010574 -92.29874 29.77302 19.21807 0 0 -23.3163 4.154987 16.59718 9.954476
0.8308886 101.4429 11.28004 -1.694858 2.794668 1.078363 7.220514 -31.31911 5.847312 -0 22.00657 -0 -6.250529 -5.833666 -2.182054 -4.996128 14.51446 -18.69483 -0 10.99191 -0 -3.021701 -24.66373 17.44002 -1.311644 -1.438709 3.559731 2.409252 7.992378 -8.388334 1.479597 20.15029 8.354001 4.745056 -25.8656 9.8486 5.417983 -17.3538 10.4783 87.00097 34.17728 -22.23289 -0 0 14.21416 -9.161093 10.65452 3.715908 8.725435 -22.30226 -0.2573585 -93.27477 29.74645 19.8709 0 0 -22.03612 3.627737 17.37634 10.29504
1.061584 100.8534 14.96633 -2.174226 3.119936 1.623257 7.728189 -32.1898 5.608832 -0 22.76108 -0 -6.293047 -5.059631 -1.661426 -4.756125 13.81264 -18.30268 -0 11.47112 -0 -4.68577 -25.37443 16.24483 -0.8573945 -1.22558 3.516946 2.321759 7.840089 -8.361985 1.380738 19.74208 8.718063 5.06634 -26.17975 9.965322 5.560659 -17.21385 10.5168 86.34911 33.58327 -21.67071 -0 0 15.08219 -9.476298 11.0475 3.524673 9.441048 -22.38421 0.3261127 -93.84959 28.46933 20.25747 0 0 -20.48259 4.494486 17.84225 8.832533
1.347791 100.2621 18.8115 -2.448468 3.300702 2.155561 8.005572 -32.87832 5.172188 -0 21.99409 -0 -6.416362 -4.21049 -1.2103 -4.646322 13.38095 -17.68863 -0 12.69443 -0 -5.029584 -25.47412 15.70488 -0.6403008 -1.078324 3.498474 2.362564 7.873998 -8.379896 1.318461 19.49717 8.89467 5.252086 -26.42558 10.01087 5.519264 -17.06951 10.56728 86.09901 33.25512 -21.37728 -0 0 15.1803 -9.899705 11.25408 3.447478 9.913758 -22.59831 0.5955552 -93.64775 26.72206 19.77702 0 0 -19.58933 6.172544 17.8861 6.408075
